# xmcd
#
# Track frame offsets:
#	150
#	10242
#	24215
#	35560
#	49290
#	61575
#	70387
#	87647
#	101175
#	115397
#	133717
#	148125
#	161675
#	174440
#
# Disc length: 2516 seconds
# Revision: 4
# Processed by: cddbd v1.5.2PL0 Copyright (c) Steve Scherf et al.
# Submitted via: dBpowerAMP V12.0
#
DISCID=c609d20e
DTITLE=Daughters of the Purple Sage - Songs of the Golden West
DYEAR=1997
DGENRE=Country
TTITLE0=Timber Trail
TTITLE1=Texas Plains
TTITLE2=Wagon Wheels
TTITLE3=San Antonio Rose
TTITLE4=Along The Navajo Trail
TTITLE5=Ragtime Cowboy Joe
TTITLE6=Cool Water
TTITLE7=Way Out There
TTITLE8=South Of The Border
TTITLE9=Wind
TTITLE10=Riders In The Sky
TTITLE11=Tumblin Tumblewees
TTITLE12=I Want To Be A Cowboy's Sweetheart
TTITLE13=Shenandoah
EXTD=
EXTT0=
EXTT1=
EXTT2=
EXTT3=
EXTT4=
EXTT5=
EXTT6=
EXTT7=
EXTT8=
EXTT9=
EXTT10=
EXTT11=
EXTT12=
EXTT13=
PLAYORDER=
